<svg width="14" height="14" viewBox="0 0 14 14" fill="none" xmlns="http://www.w3.org/2000/svg">
<path d="M13.6109 10.0987L11.8128 8.30057C11.2941 7.78181 10.4499 7.78185 9.93118 8.30057L9.14121 9.09054C7.33695 8.14573 5.85426 6.66304 4.90944 4.85878L5.69945 4.06877C6.21818 3.55001 6.21818 2.70589 5.69945 2.18713L3.9014 0.389072C3.38263 -0.129691 2.53851 -0.129691 2.01975 0.389072L0.5813 1.82756C-0.170298 2.57912 -0.193797 3.90405 0.515116 5.5582C1.15418 7.04936 2.3271 8.69155 3.81777 10.1822C5.30844 11.6729 6.95063 12.8458 8.44179 13.4849C9.24353 13.8285 9.96784 14 10.5871 14C11.2455 14 11.7851 13.806 12.1724 13.4187L13.6109 11.9803C13.8622 11.729 14.0006 11.3948 14.0006 11.0394C14.0006 10.6841 13.8622 10.35 13.6109 10.0987ZM12.808 11.1775L11.3696 12.6159C10.9801 13.0053 10.0529 12.9401 8.889 12.4414C7.52744 11.8578 6.01153 10.7704 4.62053 9.37942C3.22957 7.98842 2.14213 6.47255 1.55858 5.11099C1.05984 3.94719 0.994524 3.01986 1.38402 2.6304L2.82247 1.19195C2.89861 1.11585 3.02243 1.11585 3.09852 1.19195L4.89658 2.99C4.97268 3.0661 4.97268 3.18995 4.89658 3.26601L3.53487 4.62776L3.70614 4.98929C4.80565 7.31046 6.68952 9.19438 9.01073 10.2939L9.37226 10.4651L10.734 9.10341C10.7837 9.05369 10.8418 9.04623 10.872 9.04623C10.9021 9.04623 10.9602 9.05365 11.0099 9.10337L12.808 10.9014C12.8577 10.9511 12.8652 11.0092 12.8652 11.0394C12.8653 11.0697 12.8578 11.1278 12.808 11.1775Z" fill="white"/>
</svg>
