<svg width="26" height="26" viewBox="0 0 26 26" fill="none" xmlns="http://www.w3.org/2000/svg">
<path d="M3.25 6.49999H5.41667M5.41667 6.49999H22.75M5.41667 6.49999L5.41667 21.6667C5.41667 22.2413 5.64494 22.7924 6.05127 23.1987C6.4576 23.605 7.0087 23.8333 7.58333 23.8333H18.4167C18.9913 23.8333 19.5424 23.605 19.9487 23.1987C20.3551 22.7924 20.5833 22.2413 20.5833 21.6667V6.49999M8.66667 6.49999V4.33332C8.66667 3.75869 8.89494 3.20759 9.30127 2.80126C9.7076 2.39493 10.2587 2.16666 10.8333 2.16666H15.1667C15.7413 2.16666 16.2924 2.39493 16.6987 2.80126C17.1051 3.20759 17.3333 3.75869 17.3333 4.33332V6.49999M10.8333 11.9167V18.4167M15.1667 11.9167V18.4167" stroke="#1E1E1E" stroke-width="2" stroke-linecap="round" stroke-linejoin="round"/>
</svg>
