<svg width="44" height="44" viewBox="0 0 44 44" fill="none" xmlns="http://www.w3.org/2000/svg">
<path d="M6.71824 27.4184H12.3487C13.9731 27.4184 15.2948 26.0966 15.2947 24.4724L15.2947 21.9987C19.5989 20.6531 24.2416 20.6531 28.5458 21.9987V24.4725C28.5459 26.0968 29.8675 27.4185 31.4918 27.4185H37.1221C38.7466 27.4185 40.0682 26.0969 40.0682 24.4725L40.0681 19.9681C40.0682 17.6147 38.0306 15.5035 34.3308 14.0236C30.9956 12.6895 26.588 11.9547 21.9202 11.9547C17.2525 11.9547 12.8449 12.6895 9.5097 14.0236C7.71648 14.7409 6.31388 15.6064 5.34437 16.5759C4.31354 17.6067 3.77232 18.7553 3.77232 19.9681L3.77232 24.4724C3.77226 25.2593 4.07875 25.9991 4.63519 26.5556C5.19146 27.112 5.93132 27.4184 6.71824 27.4184ZM6.28621 24.4723L6.28621 19.968C6.28627 18.7485 7.84013 17.3989 10.4433 16.3575C13.4887 15.1394 17.5646 14.4685 21.9203 14.4685C26.2759 14.4686 30.3519 15.1394 33.3973 16.3575C36.0003 17.3987 37.5544 18.7484 37.5543 19.968L37.5543 24.4722C37.5543 24.7106 37.3604 24.9044 37.1221 24.9044L31.4918 24.9044C31.2535 24.9044 31.0596 24.7105 31.0597 24.4723L31.0596 20.2083L30.2254 19.9104C24.8698 17.9977 18.9707 17.9976 13.615 19.9104L12.7808 20.2083L12.7808 24.4723C12.7808 24.628 12.7015 24.7307 12.6543 24.7779C12.607 24.8251 12.5045 24.9044 12.3488 24.9044H6.71848C6.56278 24.9044 6.46016 24.8252 6.41288 24.7779C6.36543 24.7307 6.28621 24.628 6.28621 24.4723Z" fill="white"/>
</svg>
